<?xml version="1.0" encoding="utf-8"?>
<!-- Generator: Adobe Illustrator 19.2.1, SVG Export Plug-In . SVG Version: 6.00 Build 0)  -->
<svg version="1.1" id="Слой_1" xmlns="http://www.w3.org/2000/svg" xmlns:xlink="http://www.w3.org/1999/xlink" x="0px" y="0px"
	 viewBox="0 0 1776 615" style="enable-background:new 0 0 1776 615;" xml:space="preserve">
<style type="text/css">
	.st0{display:none;}
	.st1{fill:#2E3D82;}
	.st2{fill:none;stroke:#2E3D82;stroke-width:10;stroke-miterlimit:10;}
	.st3{fill:none;stroke:#2E3D82;stroke-width:20;stroke-miterlimit:10;}
	.st4{fill:none;}
	.st5{enable-background:new    ;}
</style>
<g id="Layer_1" class="st0">
</g>
<g id="ЧИСТ">
	<path class="st1" d="M11,82h122v115c0,0-1,29,25,29s36,0,36,0V82h111v398H186V330c0,0-48,14-92-1.3S10,271,9,236.4S11,82,11,82z"/>
	<path class="st1" d="M662.8,140.5c0,0-118.8,143.5,0.3,288.5c0,51,0,51,0,51H534V323l-69.5,121.5c0,0-23.5,36-58,35s-73.5-31-74-59
		S330.5,82,332,82h124v165l76.7-131.3c0,0,13.7-34,57-34s66.3,27,73.3,56.7"/>
	<path class="st1" d="M813,86h315v113h-64v280H939V200H833c0,0-70.8,14-73.3,77S828,365.3,886,365.3c0,12,0,115.7,0,115.7h-72
		c0,0-151-20-175-154S689,105,813,86z"/>
</g>
<g id="Layer_3">
	<path class="st2" d="M1222,281.5c0-77.1,32.6-146.5,84.7-195.5h-129.5c-15.6,0-28.2,13.1-28.2,28.7v336c0,15.6,12.6,28.3,28.2,28.3
		h131.7C1255.5,430.1,1222,359.6,1222,281.5z"/>
	<circle class="st3" cx="1489.7" cy="281.7" r="267.7"/>
	<path class="st3" d="M1583.5,289.3c-1.1,33,14.6,61,37.2,74c2.6,4.3,15.4,2.8,9.4,11.1c-29.9,46.6-81.5,77.6-140.5,78.2
		c-93.5,0.9-170.1-75-171.1-169.6s74.1-172.1,167.6-173c69.7-0.7,138.1,38.2,156.5,101.8c0.1,0.2,0.1,0.4,0.1,0.5
		c4.1,14.7-1.7,4.8-5.4,8.7c-30,3.7-54,42.5-53.9,67.8C1583.5,288.9,1583.5,289.1,1583.5,289.3z"/>
	<path class="st2" d="M1642,217c0,0,55.7,81.3-10,152.7"/>
</g>
<g id="Layer_4">
	<rect x="183" y="517" class="st4" width="908" height="98"/>
	<g class="st5">
		<path class="st1" d="M190.6,536.7h17l12.9,36.1l13-36.1h16.9v51.9h-11.7v-34.1l-12.6,34.1h-11.7l-12.1-34.1v34.1h-11.7V536.7z"/>
		<path class="st1" d="M294.2,572.1l13.7,2.3c-1.8,5-4.5,8.8-8.3,11.5c-3.8,2.6-8.5,3.9-14.2,3.9c-9,0-15.7-2.9-20-8.8
			c-3.4-4.7-5.1-10.7-5.1-17.9c0-8.6,2.2-15.3,6.7-20.2c4.5-4.9,10.2-7.3,17-7.3c7.7,0,13.8,2.5,18.3,7.6c4.5,5.1,6.6,12.9,6.4,23.4
			h-34.4c0.1,4.1,1.2,7.2,3.3,9.5c2.1,2.3,4.8,3.4,7.9,3.4c2.1,0,4-0.6,5.4-1.8S293.4,574.7,294.2,572.1z M295,558.2
			c-0.1-4-1.1-7-3.1-9.1c-2-2.1-4.3-3.1-7.1-3.1c-3,0-5.5,1.1-7.4,3.3c-2,2.2-2.9,5.1-2.9,8.9H295z"/>
		<path class="st1" d="M319.4,536.7h12.8v7.6c1.7-2.6,3.9-4.7,6.7-6.3c2.8-1.6,6-2.4,9.4-2.4c6,0,11.1,2.4,15.3,7.1
			c4.2,4.7,6.3,11.3,6.3,19.7c0,8.7-2.1,15.4-6.3,20.2c-4.2,4.8-9.4,7.2-15.4,7.2c-2.9,0-5.5-0.6-7.8-1.7c-2.3-1.1-4.8-3.1-7.3-5.9
			v26.1h-13.7V536.7z M333,561.8c0,5.8,1.2,10.1,3.5,12.9c2.3,2.8,5.1,4.2,8.4,4.2c3.2,0,5.8-1.3,8-3.8c2.1-2.6,3.2-6.7,3.2-12.6
			c0-5.4-1.1-9.5-3.3-12.1c-2.2-2.6-4.9-4-8.1-4c-3.4,0-6.1,1.3-8.3,3.9C334.1,552.9,333,556.7,333,561.8z"/>
		<path class="st1" d="M410.9,572.1l13.7,2.3c-1.8,5-4.5,8.8-8.3,11.5c-3.8,2.6-8.5,3.9-14.2,3.9c-9,0-15.7-2.9-20-8.8
			c-3.4-4.7-5.1-10.7-5.1-17.9c0-8.6,2.2-15.3,6.7-20.2c4.5-4.9,10.2-7.3,17-7.3c7.7,0,13.8,2.5,18.3,7.6c4.5,5.1,6.6,12.9,6.4,23.4
			h-34.4c0.1,4.1,1.2,7.2,3.3,9.5c2.1,2.3,4.8,3.4,7.9,3.4c2.1,0,4-0.6,5.4-1.8S410.1,574.7,410.9,572.1z M411.7,558.2
			c-0.1-4-1.1-7-3.1-9.1c-2-2.1-4.3-3.1-7.1-3.1c-3,0-5.5,1.1-7.4,3.3c-2,2.2-2.9,5.1-2.9,8.9H411.7z"/>
		<path class="st1" d="M456.6,588.6v-22.1c-1.8,0.1-3,0.5-3.7,1.2c-0.7,0.7-1.9,2.6-3.7,5.9l-6.5,15h-14.7l7.3-14.3
			c3.7-7.2,7.6-11.3,11.6-12.3c-3-1.1-5.3-4.1-6.9-8.8c-1.2-3.5-2.3-5.7-3.3-6.4c-1-0.7-3.3-1-7-1v-9.1c2.7-0.2,4.6-0.2,5.7-0.2
			c3,0,5.6,0.7,7.8,2c2.1,1.3,4.2,4.7,6.1,10c1.5,4.1,2.6,6.7,3.5,7.8c0.9,1.1,2.2,1.7,4,1.7v-21.2h13.6v21.2c1.8,0,3.1-0.6,4-1.7
			c0.9-1.1,2.1-3.8,3.5-7.9c1.9-5.2,3.8-8.5,5.9-9.9s4.8-2.1,8.1-2.1c0.9,0,2.8,0.1,5.5,0.2v9.1c-3.6,0-5.9,0.4-6.9,1
			c-1,0.7-2.1,2.8-3.3,6.4c-1.6,4.8-3.9,7.7-6.9,8.8c4,1,7.9,5.1,11.6,12.3l7.3,14.3h-14.7l-6.5-15c-1.2-2.7-2.3-4.5-3.2-5.5
			c-1-1-2.4-1.5-4.2-1.7v22.1H456.6z"/>
		<path class="st1" d="M517.5,552.6l-12.5-2.2c1.4-5,3.8-8.7,7.2-11.1c3.4-2.4,8.5-3.6,15.2-3.6c6.1,0,10.7,0.7,13.7,2.2
			c3,1.4,5.1,3.3,6.3,5.5c1.2,2.2,1.8,6.3,1.8,12.3l-0.1,16c0,4.6,0.2,7.9,0.7,10.1c0.4,2.2,1.3,4.5,2.5,7h-13.6
			c-0.4-0.9-0.8-2.3-1.3-4.1c-0.2-0.8-0.4-1.4-0.5-1.6c-2.3,2.3-4.9,4-7.5,5.1c-2.7,1.1-5.5,1.7-8.5,1.7c-5.3,0-9.5-1.4-12.6-4.3
			c-3.1-2.9-4.6-6.6-4.6-11c0-2.9,0.7-5.5,2.1-7.8c1.4-2.3,3.4-4.1,5.9-5.3c2.5-1.2,6.2-2.3,10.9-3.2c6.4-1.2,10.9-2.3,13.3-3.4
			v-1.4c0-2.6-0.7-4.5-2-5.6c-1.3-1.1-3.8-1.7-7.4-1.7c-2.4,0-4.3,0.5-5.7,1.4C519.5,548.5,518.4,550.2,517.5,552.6z M535.9,563.7
			c-1.8,0.6-4.5,1.3-8.3,2.1c-3.8,0.8-6.3,1.6-7.5,2.4c-1.8,1.3-2.7,2.9-2.7,4.8c0,1.9,0.7,3.6,2.1,5c1.4,1.4,3.3,2.1,5.5,2.1
			c2.5,0,4.8-0.8,7.1-2.4c1.7-1.2,2.8-2.8,3.3-4.5c0.4-1.2,0.5-3.4,0.5-6.7V563.7z"/>
		<path class="st1" d="M584.1,588.6l18.7-26.7l-17.9-25.1h16.7l9.2,14.3l9.7-14.3h16.1L619,561.3l19.2,27.3h-16.8l-10.5-16.1
			l-10.6,16.1H584.1z"/>
		<path class="st1" d="M646.3,529.7V517H660v12.7H646.3z M646.3,588.6v-51.9H660v51.9H646.3z"/>
		<path class="st1" d="M674.5,536.7h17l12.9,36.1l13-36.1h16.9v51.9h-11.7v-34.1L710,588.6h-11.7l-12.1-34.1v34.1h-11.7V536.7z"/>
		<path class="st1" d="M746.4,536.7h13.9v12.4c0,2.8,0.3,4.9,0.8,6.3c0.5,1.4,1.6,2.6,3.2,3.6c1.6,1,3.7,1.5,6.2,1.5
			c2.4,0,5.2-0.6,8.2-1.7v-22.1h13.7v51.9h-13.7v-20.7c-5.3,1.4-9.4,2.1-12.2,2.1c-4.2,0-8-0.9-11.3-2.7c-3.4-1.8-5.6-4.1-6.9-6.9
			c-1.2-2.8-1.9-6.6-1.9-11.3V536.7z"/>
		<path class="st1" d="M805.8,536.7h13.2v32.6l21.1-32.6h13.5v51.9h-13.2v-33.2l-21.4,33.2h-13.2V536.7z"/>
		<path class="st1" d="M912.8,552.1l-13.5,2.4c-0.5-2.7-1.5-4.7-3.1-6.1s-3.7-2.1-6.3-2.1c-3.4,0-6.1,1.2-8.2,3.5
			c-2,2.4-3.1,6.3-3.1,11.8c0,6.2,1,10.5,3.1,13c2.1,2.5,4.8,3.8,8.3,3.8c2.6,0,4.7-0.7,6.4-2.2c1.7-1.5,2.8-4,3.5-7.6l13.5,2.3
			c-1.4,6.2-4.1,10.9-8.1,14c-4,3.2-9.3,4.7-16,4.7c-7.6,0-13.6-2.4-18.1-7.2c-4.5-4.8-6.8-11.4-6.8-19.9c0-8.6,2.3-15.2,6.8-20
			c4.5-4.8,10.6-7.2,18.4-7.2c6.3,0,11.3,1.4,15.1,4.1C908.5,542.4,911.2,546.5,912.8,552.1z"/>
		<path class="st1" d="M917,536.7H964v11.1h-16.6v40.8h-13.7v-40.8H917V536.7z"/>
		<path class="st1" d="M967.7,561.9c0-4.6,1.1-9,3.4-13.2c2.2-4.3,5.4-7.5,9.5-9.8s8.7-3.4,13.8-3.4c7.8,0,14.3,2.5,19.3,7.6
			c5,5.1,7.5,11.5,7.5,19.3c0,7.8-2.5,14.3-7.6,19.5c-5.1,5.2-11.4,7.7-19.1,7.7c-4.8,0-9.3-1.1-13.6-3.2s-7.6-5.3-9.8-9.4
			S967.7,567.9,967.7,561.9z M981.7,562.7c0,5.1,1.2,9.1,3.7,11.8s5.5,4.1,9,4.1c3.6,0,6.6-1.4,9-4.1s3.6-6.7,3.6-11.9
			c0-5.1-1.2-9-3.6-11.7s-5.4-4.1-9-4.1c-3.6,0-6.6,1.4-9,4.1S981.7,557.5,981.7,562.7z"/>
		<path class="st1" d="M1031.4,536.7h13.7v21.2c2.3-0.3,3.9-1,4.8-2.1c0.9-1.1,2.1-3.6,3.4-7.5c1.8-5.1,3.7-8.4,5.8-9.8
			c2.1-1.4,4.8-2.1,8.2-2.1c1,0,2.8,0.1,5.4,0.2l0,9.1c-3.6,0-5.9,0.3-6.9,1c-1,0.7-2.1,2.8-3.3,6.4c-1.6,4.8-3.9,7.7-6.9,8.8
			c4.3,1.2,8,5,11,11.3c0.2,0.3,0.3,0.7,0.5,1l7.7,14.3h-14.7l-6.8-15c-1.4-3-2.6-5-3.6-5.8c-1-0.9-2.5-1.3-4.6-1.3v22.1h-13.7
			V536.7z"/>
	</g>
</g>
</svg>
